#!OML:ASF F:\twosubjects\two\wednesday\Session 1\rory1.ASF
:FULLY-SPECIFIED
:DEGREES
241
root 8.78395 18.402 9.7725 -175.975 -2.53593 178.348
lowerback 3.2274 0.183621 -3.9217
upperback 2.08079 -0.00142892 -1.91009
thorax 0.323906 -0.0879908 0.23777
lowerneck -10.9856 -4.70592 -3.99643
upperneck 11.5817 -6.95536 7.49742
head 5.70811 -3.12636 2.41954
rclavicle 1.68967e-015 3.02153e-014
rhumerus -40.3661 4.5889 -75.2854
rradius 140.541
rwrist -38.9412
rhand -0.752947 38.7354
rfingers 7.12502
rthumb 24.869 10.333
lclavicle 1.68967e-015 3.02153e-014
lhumerus -38.4639 3.3823 72.5659
lradius 144.686
lwrist 39.4135
lhand -2.73261 14.3374
lfingers 7.12502
lthumb 22.9706 42.9889
rfemur -9.92365 7.20147 13.8189
rtibia 29.3806
rfoot -16.1942 -14.5148
rtoes 3.27589
lfemur -12.5555 -2.83818 -16.6593
ltibia 29.8343
lfoot -16.6976 -0.649508
ltoes -13.0375
242
root 8.7957 18.4033 9.77496 -176.207 -2.94769 178.275
lowerback 3.43029 -0.0268784 -4.15079
upperback 2.1122 -0.297712 -1.77784
thorax 0.254753 -0.237813 0.510604
lowerneck -11.0501 -4.60582 -3.96323
upperneck 11.8816 -6.75147 6.94675
head 5.77905 -3.0525 2.2573
rclavicle -3.27995e-015 1.82882e-014
rhumerus -39.9613 6.49585 -75.5496
rradius 140.556
rwrist -40.131
rhand -0.218849 36.7304
rfingers 7.12502
rthumb 25.3807 8.39965
lclavicle -3.27995e-015 1.82882e-014
lhumerus -38.8721 -0.851156 73.3834
lradius 144.277
lwrist 38.015
lhand -5.04829 12.9754
lfingers 7.12502
lthumb 20.747 41.8863
rfemur -9.54627 6.96276 13.8588
rtibia 29.3568
rfoot -16.2412 -14.6877
rtoes 3.29867
lfemur -12.1686 -2.92804 -16.6672
ltibia 29.4494
lfoot -16.4747 -0.936332
ltoes -11.8379
243
root 8.80459 18.4046 9.78137 -176.436 -3.35502 178.369
lowerback 3.49267 -0.12152 -4.32641
upperback 2.14217 -0.42536 -1.58736
thorax 0.258956 -0.302298 0.808266
lowerneck -10.5744 -4.54829 -3.5905
upperneck 11.7553 -6.6189 6.20816
head 5.61245 -3.03009 1.98841
rclavicle -3.8763e-015 -2.54444e-014
rhumerus -39.5895 9.03374 -75.0836
rradius 140.601
rwrist -41.0173
rhand 1.29986 35.9722
rfingers 7.12502
rthumb 26.8348 7.85629
lclavicle -3.8763e-015 -2.54444e-014
lhumerus -38.9952 -5.7003 73.5352
lradius 143.835
lwrist 36.687
lhand -6.11922 12.6521
lfingers 7.12502
lthumb 19.7177 41.6721
rfemur -9.18698 6.75919 14.0693
rtibia 29.2401
rfoot -16.1832 -14.7917
rtoes 3.91704
lfemur -11.8541 -2.98654 -16.515
ltibia 29.1783
lfoot -16.196 -1.14534
ltoes -12.241
244
root 8.81343 18.4051 9.78746 -176.582 -3.47369 178.519
lowerback 3.35316 -0.154958 -4.54229
upperback 2.16707 -0.457264 -1.35023
thorax 0.368467 -0.320189 1.17201
lowerneck -9.8996 -4.41736 -3.28714
upperneck 11.5053 -6.38406 5.5233
head 5.37505 -2.96151 1.76232
rclavicle 3.47873e-015 1.39149e-014
rhumerus -38.9205 12.2344 -73.8888
rradius 140.699
rwrist -41.321
rhand 1.95307 35.0481
rfingers 7.12502
rthumb 27.4597 7.02975
lclavicle 3.47873e-015 1.39149e-014
lhumerus -38.8945 -11.0168 73.2256
lradius 143.39
lwrist 34.8397
lhand -5.6342 12.589
lfingers 7.12502
lthumb 20.184 41.5605
rfemur -8.97646 6.7725 14.3038
rtibia 29.0969
rfoot -16.0804 -14.8915
rtoes 3.86645
lfemur -11.6428 -2.88087 -16.3272
ltibia 29.0284
lfoot -16.0126 -1.26318
ltoes -13.8249
245
root 8.82582 18.4157 9.79475 -176.755 -3.34531 178.569
lowerback 3.36569 -0.107092 -4.73575
upperback 2.14455 -0.397998 -1.27665
thorax 0.337485 -0.291033 1.3541
lowerneck -9.43831 -4.25976 -3.15922
upperneck 11.5879 -6.18562 5.29736
head 5.30209 -2.88599 1.69639
rclavicle -1.14301e-014 -4.65156e-014
rhumerus -38.1404 15.653 -72.3417
rradius 140.755
rwrist -40.2937
rhand 2.16012 34.5612
rfingers 7.12502
rthumb 27.6577 6.57449
lclavicle -1.14301e-014 -4.65156e-014
lhumerus -38.6568 -16.9478 72.3943
lradius 142.942
lwrist 32.6687
lhand -6.1886 11.9248
lfingers 7.12502
lthumb 19.651 40.9516
rfemur -8.81619 6.87875 14.4179
rtibia 29.0564
rfoot -15.9579 -15.0117
rtoes 2.63296
lfemur -11.4511 -2.86203 -16.2357
ltibia 28.9347
lfoot -15.923 -1.24363
ltoes -13.3557
246
root 8.83126 18.4249 9.80736 -176.758 -3.2526 178.421
lowerback 3.36524 -0.0858807 -4.87843
upperback 2.05643 -0.378327 -1.37548
thorax 0.246341 -0.279291 1.33215
lowerneck -9.33386 -4.11066 -2.81354
upperneck 11.8306 -6.02762 5.04251
head 5.33451 -2.81485 1.57397
rclavicle 9.93923e-015 3.77691e-014
rhumerus -37.2408 19.2324 -70.4734
rradius 140.695
rwrist -38.2842
rhand 2.04958 35.6064
rfingers 7.12502
rthumb 27.552 7.60279
lclavicle 9.93923e-015 3.77691e-014
lhumerus -38.1119 -23.1189 70.9673
lradius 142.288
lwrist 30.7929
lhand -7.39368 11.1579
lfingers 7.12502
lthumb 18.4922 40.299
rfemur -8.88928 6.78157 14.24
rtibia 29.0799
rfoot -15.8267 -14.9607
rtoes 1.89851
lfemur -11.5031 -3.03723 -16.392
ltibia 28.9083
lfoot -15.9125 -1.02922
ltoes -13.0678
247
root 8.82968 18.4285 9.82282 -176.612 -3.18186 178.178
lowerback 3.07276 -0.0974321 -5.00612
upperback 2.06305 -0.381023 -1.48084
thorax 0.41719 -0.286316 1.29338
lowerneck -9.39001 -3.98926 -2.58589
upperneck 11.9506 -5.8726 4.82305
head 5.36168 -2.74202 1.47923
rclavicle -3.47873e-015 -1.07344e-014
rhumerus -35.7481 22.8032 -67.9048
rradius 140.376
rwrist -36.2211
rhand 1.65593 37.3703
rfingers 7.12502
rthumb 27.1755 9.30725
lclavicle -3.47873e-015 -1.07344e-014
lhumerus -37.0897 -29.2665 69.0714
lradius 141.414
lwrist 29.5906
lhand -8.45809 10.3486
lfingers 7.12502
lthumb 17.468 39.5838
rfemur -9.13778 6.75361 13.8837
rtibia 29.0802
rfoot -15.8258 -14.6102
rtoes 3.89191
lfemur -11.7344 -3.19923 -16.6889
ltibia 28.9905
lfoot -16.0517 -0.840656
ltoes -13.539
248
root 8.82988 18.4322 9.83573 -176.615 -3.06459 178.189
lowerback 2.72973 -0.0677605 -5.05464
upperback 2.19537 -0.312911 -1.3703
thorax 0.742623 -0.261844 1.42968
lowerneck -9.35944 -3.92142 -2.89752
upperneck 11.983 -5.75769 4.96751
head 5.37512 -2.69027 1.58401
rclavicle 4.57205e-015 1.07344e-014
rhumerus -33.6181 26.0259 -64.3109
rradius 139.921
rwrist -34.8223
rhand 1.99253 39.1336
rfingers 7.12502
rthumb 27.4974 11.1213
lclavicle 4.57205e-015 1.07344e-014
lhumerus -35.6387 -35.0615 66.7866
lradius 140.604
lwrist 29.4774
lhand -8.44185 9.96248
lfingers 7.12502
lthumb 17.4836 39.1963
rfemur -9.21948 6.83343 13.8484
rtibia 29.1025
rfoot -15.7983 -14.3103
rtoes 5.20953
lfemur -11.8171 -3.24364 -16.6865
ltibia 29.1318
lfoot -16.1479 -0.796642
ltoes -12.3541
249
root 8.8277 18.4291 9.84741 -176.727 -2.99704 178.446
lowerback 2.58582 -0.067207 -4.98056
upperback 2.24111 -0.288331 -1.07986
thorax 0.870343 -0.248996 1.68534
lowerneck -9.2139 -3.84415 -3.34991
upperneck 12.1251 -5.62171 5.09029
head 5.4048 -2.63929 1.708
rclavicle -4.42296e-015 -1.15295e-014
rhumerus -31.155 29.0558 -59.9274
rradius 139.435
rwrist -34.9275
rhand 2.73335 41.5238
rfingers 7.12502
rthumb 28.2057 13.6262
lclavicle -4.42296e-015 -1.15295e-014
lhumerus -34.01 -40.0391 64.1774
lradius 139.925
lwrist 29.9654
lhand -7.71186 9.96129
lfingers 7.12502
lthumb 18.1861 39.1311
rfemur -9.17739 6.6995 14.1286
rtibia 29.158
rfoot -15.7163 -14.2946
rtoes 3.26938
lfemur -11.8177 -3.33013 -16.4176
ltibia 29.2973
lfoot -16.2211 -0.686639
ltoes -10.62
250
root 8.82341 18.4219 9.86575 -176.817 -2.99422 178.625
lowerback 2.6603 -0.0730267 -4.8387
upperback 2.12514 -0.289978 -0.904369
thorax 0.709619 -0.238476 1.78746
lowerneck -9.0633 -3.8148 -3.65291
upperneck 12.6423 -5.59829 5.09822
head 5.5474 -2.64944 1.76048
rclavicle -1.07841e-014 -5.56597e-015
rhumerus -28.9989 32.5132 -55.8644
rradius 139.781
rwrist -34.0141
rhand -0.78382 33.9566
rfingers 7.12502
rthumb 24.8394 5.55014
lclavicle -1.07841e-014 -5.56597e-015
lhumerus -32.2461 -44.1297 61.113
lradius 139.429
lwrist 30.2238
lhand -6.71038 10.5849
lfingers 7.12502
lthumb 19.1494 39.6621
rfemur -9.19341 6.51815 14.3127
rtibia 29.2144
rfoot -15.7302 -14.3319
rtoes 1.78102
lfemur -11.9091 -3.44851 -16.2579
ltibia 29.5287
lfoot -16.3701 -0.474328
ltoes -11.2682
